<svg width="34.000000" height="34.000000" viewBox="0 0 34 34" fill="none" xmlns="http://www.w3.org/2000/svg" xmlns:xlink="http://www.w3.org/1999/xlink">
	<desc>
			Created with Pixso.
	</desc>
	<defs>
		<clipPath id="clip134_1407">
			<rect id="crypto_item" width="34.000000" height="34.000000" fill="white" fill-opacity="0"/>
		</clipPath>
	</defs>
	<rect id="crypto_item" width="34.000000" height="34.000000" fill="#FFFFFF" fill-opacity="0"/>
	<g clip-path="url(#clip134_1407)">
		<path id="Vector" d="M20.31 16.84C20.43 16.79 20.53 16.73 20.63 16.67C21.11 16.36 21.45 15.95 21.66 15.45C21.88 14.96 21.99 14.42 21.99 13.84C21.99 13.18 21.88 12.61 21.68 12.12C21.47 11.64 21.17 11.23 20.77 10.91C20.38 10.58 19.9 10.34 19.34 10.19C18.93 10.08 18.48 10 17.99 9.97L17.99 7.23L16.13 7.23L16.13 9.96L13.21 9.96L13.21 24.1L16.13 24.1L16.13 26.69L17.99 26.69L17.99 24.1C18.89 24.09 19.64 23.93 20.26 23.63C20.92 23.32 21.41 22.86 21.74 22.25C22.07 21.62 22.24 20.85 22.24 19.93C22.24 19.38 22.14 18.85 21.94 18.35C21.74 17.85 21.41 17.45 20.95 17.14C20.76 17.02 20.55 16.92 20.31 16.84ZM15.87 17.99L15.87 21.65L17.86 21.65C18.27 21.65 18.6 21.57 18.86 21.42C19.11 21.26 19.3 21.05 19.42 20.79C19.54 20.52 19.6 20.22 19.6 19.89C19.6 19.51 19.54 19.17 19.43 18.88C19.32 18.6 19.15 18.38 18.91 18.22C18.67 18.07 18.36 17.99 17.97 17.99L15.87 17.99ZM17.42 15.87C17.87 15.87 18.23 15.81 18.51 15.68C18.79 15.55 19 15.36 19.13 15.11C19.26 14.86 19.32 14.55 19.32 14.18C19.32 13.76 19.26 13.42 19.13 13.16C19 12.9 18.79 12.71 18.51 12.6C18.23 12.48 17.87 12.41 17.43 12.41L15.87 12.41L15.87 15.87L17.42 15.87Z" fill="#FFFFFF" fill-opacity="1.000000" fill-rule="evenodd"/>
		<path id="Vector" d="M31.21 17C31.21 24.84 24.84 31.21 17 31.21C9.15 31.21 2.78 24.84 2.78 17C2.78 9.15 9.15 2.78 17 2.78C24.84 2.78 31.21 9.15 31.21 17ZM28.28 17C28.28 23.23 23.23 28.28 17 28.28C10.76 28.28 5.71 23.23 5.71 17C5.71 10.76 10.76 5.71 17 5.71C23.23 5.71 28.28 10.76 28.28 17Z" fill="#FFFFFF" fill-opacity="1.000000" fill-rule="evenodd"/>
	</g>
</svg>
