<svg width="34.000000" height="34.000000" viewBox="0 0 34 34" fill="none" xmlns="http://www.w3.org/2000/svg" xmlns:xlink="http://www.w3.org/1999/xlink">
	<desc>
			Created with Pixso.
	</desc>
	<defs>
		<clipPath id="clip134_1402">
			<rect width="34.000000" height="34.000000" fill="white" fill-opacity="0"/>
		</clipPath>
	</defs>
	<rect width="34.000000" height="34.000000" fill="#FFFFFF" fill-opacity="0"/>
	<g clip-path="url(#clip134_1402)">
		<path d="M8.5 7.08L11.33 7.08L11.33 15.58L22.66 15.58L22.66 7.08L25.5 7.08L25.5 26.91L22.66 26.91L22.66 18.41L11.33 18.41L11.33 26.91L8.5 26.91L8.5 7.08Z" fill="#FFFFFF" fill-opacity="1.000000" fill-rule="nonzero"/>
		<path d="M4.25 9.91L7.08 9.91L7.08 24.08L4.25 24.08L4.25 18.41L1.41 18.41L1.41 15.58L4.25 15.58L4.25 9.91Z" fill="#FFFFFF" fill-opacity="1.000000" fill-rule="nonzero"/>
		<path d="M29.75 9.91L26.91 9.91L26.91 24.08L29.75 24.08L29.75 18.41L32.58 18.41L32.58 15.58L29.75 15.58L29.75 9.91Z" fill="#FFFFFF" fill-opacity="1.000000" fill-rule="nonzero"/>
	</g>
</svg>
