<svg width="34.000000" height="34.000000" viewBox="0 0 34 34" fill="none" xmlns="http://www.w3.org/2000/svg" xmlns:xlink="http://www.w3.org/1999/xlink">
	<desc>
			Created with Pixso.
	</desc>
	<defs>
		<clipPath id="clip134_1414">
			<rect id="Frame 1057" width="34.000000" height="34.000000" fill="white" fill-opacity="0"/>
		</clipPath>
	</defs>
	<rect id="Frame 1057" width="34.000000" height="34.000000" fill="#FFFFFF" fill-opacity="0"/>
	<g clip-path="url(#clip134_1414)">
		<path id="Vector" d="M9.91 12.75L12.74 12.75L12.74 15.58L15.58 15.58L15.58 18.41L12.74 18.41L12.74 21.25L9.91 21.25L9.91 18.41L7.08 18.41L7.08 15.58L9.91 15.58L9.91 12.75Z" fill="#FFFFFF" fill-opacity="1.000000" fill-rule="nonzero"/>
		<path id="Vector" d="M24.08 14.17C24.08 14.96 23.45 15.58 22.66 15.58C21.87 15.58 21.24 14.96 21.24 14.17C21.24 13.38 21.87 12.75 22.66 12.75C23.45 12.75 24.08 13.38 24.08 14.17Z" fill="#FFFFFF" fill-opacity="1.000000" fill-rule="nonzero"/>
		<path id="Vector" d="M25.49 21.25C26.28 21.25 26.91 20.61 26.91 19.82C26.91 19.03 26.28 18.41 25.49 18.41C24.71 18.41 24.08 19.03 24.08 19.82C24.08 20.61 24.71 21.25 25.49 21.25Z" fill="#FFFFFF" fill-opacity="1.000000" fill-rule="nonzero"/>
		<path id="Vector" d="M4.24 7.08L29.74 7.08C29.74 7.08 32.54 15.66 32.58 19.67C32.61 23.69 29.58 26.91 25.49 26.91L8.49 26.91C5.81 26.91 1.51 24.34 1.41 19.83C1.31 15.31 4.24 7.08 4.24 7.08ZM5.51 12.66C5.78 11.62 6.14 10.68 6.37 9.91L27.62 9.91C27.84 10.67 28.17 11.58 28.43 12.58C29.13 15.25 29.73 18.06 29.75 19.67C29.77 22.23 27.94 24.08 25.49 24.08L8.49 24.08C7.8 24.08 6.67 23.78 5.73 23.04C4.86 22.36 4.27 21.12 4.24 19.83C4.2 18.01 4.8 15.37 5.51 12.66Z" fill="#FFFFFF" fill-opacity="1.000000" fill-rule="evenodd"/>
	</g>
</svg>
