<svg width="175.680542" height="11.582031" viewBox="0 0 175.681 11.582" fill="none" xmlns="http://www.w3.org/2000/svg" xmlns:xlink="http://www.w3.org/1999/xlink">
	<desc>
			Created with Pixso.
	</desc>
	<defs/>
	<path id="ALEXANDR KALASHYAN" d="M132.83 9.46Q132.31 10.23 130.65 10.23Q129.56 10.23 128.81 9.98Q128.06 9.72 127.69 9.51L127.23 10.8Q127.4 10.89 127.71 11.03Q128.03 11.16 128.46 11.28Q128.89 11.4 129.44 11.49Q130 11.58 130.65 11.58Q132.59 11.58 133.65 10.8Q134.06 10.49 134.31 10.09Q134.71 9.45 134.71 8.55Q134.71 7.77 134.47 7.22Q134.33 6.9 134.13 6.63Q133.98 6.43 133.79 6.27Q133.35 5.87 132.75 5.58Q132.16 5.29 131.43 5Q130.92 4.81 130.5 4.62Q130.07 4.43 129.75 4.2Q129.43 3.96 129.26 3.66Q129.08 3.35 129.08 2.91Q129.08 2.51 129.25 2.21Q129.32 2.08 129.41 1.98Q129.54 1.83 129.71 1.72Q130 1.53 130.38 1.44Q130.76 1.34 131.21 1.34Q132.09 1.34 132.75 1.54Q133.42 1.74 133.75 1.95L134.25 0.68Q133.87 0.43 133.04 0.21Q132.22 0 131.21 0Q129.47 0 128.48 0.81Q128.14 1.08 127.92 1.43Q127.48 2.11 127.48 3.08Q127.48 3.79 127.71 4.28Q127.86 4.59 128.07 4.85Q128.19 5 128.34 5.14Q128.75 5.5 129.29 5.76Q129.84 6.03 130.44 6.23Q130.97 6.43 131.44 6.62Q131.91 6.81 132.28 7.08Q132.64 7.33 132.85 7.67Q132.86 7.68 132.87 7.7Q133.08 8.06 133.08 8.57Q133.08 9.1 132.83 9.46ZM70.73 8.29Q71.18 7.23 71.18 5.79Q71.18 4.35 70.73 3.28Q70.35 2.38 69.71 1.74Q69.59 1.63 69.46 1.52Q68.65 0.83 67.51 0.48Q66.38 0.14 65.02 0.14Q64.35 0.14 63.54 0.19Q62.73 0.25 62.07 0.41L62.07 11.16Q62.73 11.32 63.54 11.38Q64.35 11.44 65.02 11.44Q66.38 11.44 67.51 11.09Q68.65 10.75 69.46 10.05Q69.6 9.94 69.72 9.81Q70.35 9.18 70.73 8.29ZM79.55 7.54Q79.16 7.02 78.91 6.7Q80.04 6.32 80.63 5.53Q80.75 5.36 80.85 5.18Q81.21 4.51 81.21 3.64Q81.21 2.47 80.66 1.69Q80.39 1.31 79.99 1.02Q78.76 0.14 76.43 0.14Q75.75 0.14 74.95 0.19Q74.14 0.25 73.48 0.41L73.48 11.34L75.04 11.34L75.04 7L76.86 7Q77.08 7 77.29 6.99Q77.59 7.35 77.97 7.85Q78.34 8.35 78.73 8.92Q79.11 9.48 79.49 10.11Q79.87 10.73 80.18 11.34L81.88 11.34Q81.59 10.7 81.18 10.01Q80.78 9.32 80.36 8.69Q79.95 8.06 79.55 7.54ZM8.14 9.92Q8.38 10.62 8.65 11.34L10.35 11.34Q9.71 9.58 9.14 8.08Q8.58 6.58 8.05 5.24Q7.51 3.9 6.99 2.67Q6.46 1.45 5.88 0.25L4.46 0.25Q3.88 1.45 3.35 2.67Q2.83 3.9 2.29 5.24Q1.75 6.58 1.19 8.08Q0.64 9.58 0 11.34L1.61 11.34L2.62 8.51L7.64 8.51Q7.9 9.23 8.14 9.92ZM18.52 11.34L18.52 10L13.4 10L13.4 0.25L11.85 0.25L11.85 11.34L18.52 11.34ZM20.15 0.25L20.15 11.34L27.32 11.34L27.32 10.01L21.71 10.01L21.71 6.17L26.34 6.17L26.34 4.87L21.71 4.87L21.71 1.58L26.92 1.58L26.92 0.25L20.15 0.25ZM35.37 10.28Q35.71 10.86 35.95 11.34L37.69 11.34Q36.95 9.91 35.99 8.44Q35.04 6.97 33.95 5.42L37.43 0.25L35.66 0.25L32.95 4.38L30.22 0.25L28.43 0.25L31.98 5.48Q30.91 7.02 29.95 8.48Q29 9.93 28.28 11.34L29.99 11.34Q30.23 10.86 30.58 10.28Q30.92 9.69 31.31 9.06Q31.71 8.43 32.14 7.8Q32.57 7.16 32.97 6.6Q33.37 7.16 33.8 7.8Q34.23 8.43 34.63 9.06Q35.04 9.69 35.37 10.28ZM46.71 9.92Q46.95 10.62 47.23 11.34L48.92 11.34Q48.28 9.58 47.72 8.08Q47.16 6.58 46.63 5.24Q46.09 3.9 45.56 2.67Q45.04 1.45 44.46 0.25L43.04 0.25Q42.46 1.45 41.93 2.67Q41.4 3.9 40.86 5.24Q40.33 6.58 39.77 8.08Q39.21 9.58 38.57 11.34L40.18 11.34L41.2 8.51L46.22 8.51Q46.47 9.23 46.71 9.92ZM57.22 10.01Q57.68 10.75 58.03 11.34L59.32 11.34L59.32 0.25L57.8 0.25L57.8 8.46Q57.29 7.61 56.55 6.53Q55.8 5.44 54.96 4.31Q54.12 3.18 53.26 2.12Q52.41 1.05 51.66 0.25L50.43 0.25L50.43 11.34L51.94 11.34L51.94 2.68Q52.39 3.19 52.92 3.87Q53.45 4.54 54.01 5.3Q54.57 6.06 55.14 6.87Q55.71 7.69 56.23 8.48Q56.76 9.28 57.22 10.01ZM94.33 1.46Q94.96 0.8 95.45 0.25L93.58 0.25Q93.18 0.71 92.59 1.33Q92.01 1.95 91.35 2.62Q90.7 3.29 90.03 3.96Q89.35 4.62 88.8 5.15L88.8 0.25L87.24 0.25L87.24 11.34L88.8 11.34L88.8 6.07Q89.47 6.49 90.18 7.08Q90.89 7.67 91.58 8.37Q91.79 8.57 91.98 8.78Q92.46 9.29 92.91 9.83Q93.53 10.58 94.01 11.34L95.83 11.34Q95.4 10.58 94.75 9.76Q94.1 8.92 93.37 8.12Q92.64 7.32 91.87 6.62Q91.1 5.91 90.41 5.44Q91 4.86 91.67 4.19Q92.35 3.51 93.03 2.82Q93.71 2.12 94.33 1.46ZM104.74 9.92Q104.99 10.62 105.26 11.34L106.96 11.34Q106.31 9.58 105.75 8.08Q105.19 6.58 104.66 5.24Q104.12 3.9 103.6 2.67Q103.07 1.45 102.49 0.25L101.07 0.25Q100.49 1.45 99.96 2.67Q99.44 3.9 98.9 5.24Q98.36 6.58 97.8 8.08Q97.24 9.58 96.6 11.34L98.22 11.34L99.23 8.51L104.25 8.51Q104.51 9.23 104.74 9.92ZM115.13 11.34L115.13 10L110.01 10L110.01 0.25L108.46 0.25L108.46 11.34L115.13 11.34ZM124.1 9.92Q124.35 10.62 124.62 11.34L126.32 11.34Q125.67 9.58 125.11 8.08Q124.55 6.58 124.02 5.24Q123.48 3.9 122.96 2.67Q122.43 1.45 121.85 0.25L120.43 0.25Q119.85 1.45 119.32 2.67Q118.8 3.9 118.26 5.24Q117.72 6.58 117.16 8.08Q116.6 9.58 115.96 11.34L117.58 11.34L118.59 8.51L123.61 8.51Q123.87 9.23 124.1 9.92ZM145.11 0.25L143.56 0.25L143.56 4.87L138.14 4.87L138.14 0.25L136.59 0.25L136.59 11.34L138.14 11.34L138.14 6.22L143.56 6.22L143.56 11.34L145.11 11.34L145.11 0.25ZM150.51 6.89L150.51 11.34L152.06 11.34L152.06 6.86Q153.15 5.16 154.12 3.51Q155.1 1.85 155.96 0.25L154.23 0.25Q153.61 1.56 152.86 2.92Q152.11 4.27 151.32 5.51Q150.52 4.27 149.77 2.92Q149.02 1.56 148.41 0.25L146.59 0.25Q147.45 1.85 148.42 3.51Q149.4 5.18 150.51 6.89ZM163.06 9.92Q163.31 10.62 163.58 11.34L165.28 11.34Q164.63 9.58 164.07 8.08Q163.51 6.58 162.98 5.24Q162.44 3.9 161.92 2.67Q161.39 1.45 160.81 0.25L159.39 0.25Q158.81 1.45 158.28 2.67Q157.75 3.9 157.22 5.24Q156.68 6.58 156.12 8.08Q155.56 9.58 154.92 11.34L156.54 11.34L157.55 8.51L162.57 8.51Q162.83 9.23 163.06 9.92ZM173.57 10.01Q174.03 10.75 174.38 11.34L175.68 11.34L175.68 0.25L174.16 0.25L174.16 8.46Q173.64 7.61 172.9 6.53Q172.16 5.44 171.31 4.31Q170.47 3.18 169.62 2.12Q168.76 1.05 168.01 0.25L166.78 0.25L166.78 11.34L168.3 11.34L168.3 2.68Q168.75 3.19 169.27 3.87Q169.8 4.54 170.36 5.3Q170.92 6.06 171.49 6.87Q172.06 7.69 172.59 8.48Q173.11 9.28 173.57 10.01ZM68.4 8.99Q67.31 10.07 65.15 10.07Q64.49 10.07 64.13 10.06Q63.77 10.04 63.63 10.03L63.63 1.55Q63.77 1.53 64.13 1.51Q64.49 1.5 65.15 1.5Q67.3 1.5 68.39 2.58Q68.42 2.6 68.44 2.63Q68.53 2.72 68.61 2.82Q69.53 3.92 69.53 5.79Q69.53 7.65 68.62 8.75Q68.53 8.85 68.44 8.95Q68.42 8.97 68.4 8.99ZM75.04 1.55Q75.56 1.5 76.56 1.5Q77.18 1.5 77.73 1.6Q78.28 1.69 78.69 1.93Q78.87 2.04 79.02 2.18Q79.21 2.36 79.34 2.59Q79.58 3 79.58 3.63Q79.58 4.3 79.34 4.71Q79.25 4.85 79.15 4.97Q78.94 5.19 78.66 5.34Q78.22 5.56 77.58 5.64Q76.94 5.72 76.14 5.72L75.04 5.72L75.04 1.55ZM6.18 4.53Q6.68 5.83 7.19 7.23L3.07 7.23Q3.56 5.83 4.07 4.53Q4.57 3.23 5.13 2.03Q5.67 3.23 6.18 4.53ZM44.75 4.53Q45.26 5.83 45.77 7.23L41.64 7.23Q42.14 5.83 42.64 4.53Q43.15 3.23 43.71 2.03Q44.25 3.23 44.75 4.53ZM102.79 4.53Q103.29 5.83 103.8 7.23L99.67 7.23Q100.17 5.83 100.67 4.53Q101.18 3.23 101.74 2.03Q102.28 3.23 102.79 4.53ZM122.15 4.53Q122.65 5.83 123.16 7.23L119.03 7.23Q119.53 5.83 120.03 4.53Q120.54 3.23 121.1 2.03Q121.64 3.23 122.15 4.53ZM161.11 4.53Q161.61 5.83 162.12 7.23L157.99 7.23Q158.49 5.83 158.99 4.53Q159.5 3.23 160.06 2.03Q160.6 3.23 161.11 4.53Z" fill="#FFFFFF" fill-opacity="1.000000" fill-rule="evenodd"/>
</svg>
